{
	"asset":{
		"generator":"Khronos glTF Blender I/O v4.1.63",
		"version":"2.0"
	},
	"scene":0,
	"scenes":[
		{
			"name":"Scene",
			"nodes":[
				0
			]
		}
	],
	"nodes":[
		{
			"mesh":0,
			"name":"all quad sphere",
			"scale":[
				0.583383321762085,
				0.5833833813667297,
				0.5833833813667297
			]
		}
	],
	"meshes":[
		{
			"name":"Cube.001",
			"primitives":[
				{
					"attributes":{
						"POSITION":0,
						"NORMAL":1,
						"TEXCOORD_0":2
					},
					"indices":3
				}
			]
		}
	],
	"accessors":[
		{
			"bufferView":0,
			"componentType":5126,
			"count":31104,
			"max":[
				1.7092450857162476,
				1.7092461585998535,
				1.7092450857162476
			],
			"min":[
				-1.709245204925537,
				-1.709243893623352,
				-1.7092450857162476
			],
			"type":"VEC3"
		},
		{
			"bufferView":1,
			"componentType":5126,
			"count":31104,
			"type":"VEC3"
		},
		{
			"bufferView":2,
			"componentType":5126,
			"count":31104,
			"type":"VEC2"
		},
		{
			"bufferView":3,
			"componentType":5123,
			"count":46656,
			"type":"SCALAR"
		}
	],
	"bufferViews":[
		{
			"buffer":0,
			"byteLength":373248,
			"byteOffset":0,
			"target":34962
		},
		{
			"buffer":0,
			"byteLength":373248,
			"byteOffset":373248,
			"target":34962
		},
		{
			"buffer":0,
			"byteLength":248832,
			"byteOffset":746496,
			"target":34962
		},
		{
			"buffer":0,
			"byteLength":93312,
			"byteOffset":995328,
			"target":34963
		}
	],
	"buffers":[
		{
			"byteLength":1088640,
			"uri":"QuadSphere.bin"
		}
	]
}
