{
	"asset":{
		"generator":"Khronos glTF Blender I/O v4.1.63",
		"version":"2.0"
	},
	"extensionsUsed":[
		"KHR_materials_specular"
	],
	"scene":0,
	"scenes":[
		{
			"name":"Scene",
			"nodes":[
				0
			]
		}
	],
	"nodes":[
		{
			"mesh":0,
			"name":"mesh_all1_Texture1_0"
		}
	],
	"materials":[
		{
			"doubleSided":true,
			"extensions":{
				"KHR_materials_specular":{
					"specularFactor":0
				}
			},
			"name":"Texture1",
			"pbrMetallicRoughness":{
				"baseColorTexture":{
					"index":0
				},
				"metallicFactor":0
			}
		}
	],
	"meshes":[
		{
			"name":"mesh_all1_Texture1_0",
			"primitives":[
				{
					"attributes":{
						"POSITION":0,
						"NORMAL":1,
						"TEXCOORD_0":2
					},
					"indices":3,
					"material":0
				}
			]
		}
	],
	"textures":[
		{
			"sampler":0,
			"source":0
		}
	],
	"images":[
		{
			"mimeType":"image/png",
			"name":"viking_room",
			"uri":"viking_room.png"
		}
	],
	"accessors":[
		{
			"bufferView":0,
			"componentType":5126,
			"count":4895,
			"max":[
				0.7419049739837646,
				0.9248819947242737,
				0.7210429906845093
			],
			"min":[
				-0.5853449702262878,
				-0.10764700174331665,
				-0.7395349740982056
			],
			"type":"VEC3"
		},
		{
			"bufferView":1,
			"componentType":5126,
			"count":4895,
			"type":"VEC3"
		},
		{
			"bufferView":2,
			"componentType":5126,
			"count":4895,
			"type":"VEC2"
		},
		{
			"bufferView":3,
			"componentType":5123,
			"count":11484,
			"type":"SCALAR"
		}
	],
	"bufferViews":[
		{
			"buffer":0,
			"byteLength":58740,
			"byteOffset":0,
			"target":34962
		},
		{
			"buffer":0,
			"byteLength":58740,
			"byteOffset":58740,
			"target":34962
		},
		{
			"buffer":0,
			"byteLength":39160,
			"byteOffset":117480,
			"target":34962
		},
		{
			"buffer":0,
			"byteLength":22968,
			"byteOffset":156640,
			"target":34963
		}
	],
	"samplers":[
		{
			"magFilter":9729,
			"minFilter":9987
		}
	],
	"buffers":[
		{
			"byteLength":179608,
			"uri":"VikingRoom.bin"
		}
	]
}
